<?xml version="1.0" encoding="UTF-8" standalone="no"?>
<svg
   xmlns:dc="http://purl.org/dc/elements/1.1/"
   xmlns:cc="http://creativecommons.org/ns#"
   xmlns:rdf="http://www.w3.org/1999/02/22-rdf-syntax-ns#"
   xmlns:svg="http://www.w3.org/2000/svg"
   xmlns="http://www.w3.org/2000/svg"
   xmlns:xlink="http://www.w3.org/1999/xlink"
   xmlns:sodipodi="http://sodipodi.sourceforge.net/DTD/sodipodi-0.dtd"
   xmlns:inkscape="http://www.inkscape.org/namespaces/inkscape"
   width="639.54089"
   height="663.23999"
   viewBox="0 0 117.24916 121.594"
   id="svg2"
   version="1.1"
   inkscape:version="0.91 r13725"
   sodipodi:docname="Flag_of_Liberia.svg">
  <metadata
     id="metadata28">
    <rdf:RDF>
      <cc:Work
         rdf:about="">
        <dc:format>image/svg+xml</dc:format>
        <dc:type
           rdf:resource="http://purl.org/dc/dcmitype/StillImage" />
        <dc:title></dc:title>
      </cc:Work>
    </rdf:RDF>
  </metadata>
  <defs
     id="defs26">
    <clipPath
       clipPathUnits="userSpaceOnUse"
       id="clipPath4231">
      <path
         inkscape:connector-curvature="0"
         style="display:inline;fill:#fefee4;stroke:none;stroke-opacity:1"
         d="m 1.2332885,-1.6666693 8.249e-4,0.021478 -0.00744,0.014862 -0.012393,0.012393 -0.012393,0.015701 0,0.014055 0.00579,0.013216 -0.00166,0.01157 -0.042956,0.012393 -0.031402,0.015685 -0.014862,0.00497 -0.00826,-0.01157 -0.00826,-0.00744 -0.00826,-0.00413 -0.023963,0.00662 -0.00909,8.23e-4 -0.033048,8.231e-4 -0.0289171,0.00413 -0.0280937,0.00826 -0.0289171,0.015701 -0.0669189,0.052041 -0.0694038,0.04131 -0.0371789,0.00662 -0.0223006,-0.00826 -0.007439,-0.02314 0.0173465,-0.081781 -0.0115696,-0.024786 -0.0264322,-0.014878 -0.0974977,-0.024786 -0.028917,-8.231e-4 -0.0297399,0.00909 -0.0578339,0.057011 -0.0289169,0.016524 -0.014039,-0.028917 -0.0347099,0.013216 -0.0181699,0.00331 -0.019009,-8.23e-4 -8.2303e-4,0.090043 -0.0528799,0.2131656 -0.0305628,0.066096 -0.003308,0.038825 0.012393,0.049572 0.0132159,0.03471 -0.004131,0.031386 -0.0429558,0.0413098 -0.033048,0.019832 -0.0338708,0.010747 -0.035533,0.004954 -0.13880775,8.2303e-4 -0.03469387,0.004954 -0.04048691,0.019832 -0.02478594,0.0322249 -0.03964781,0.0743578 -0.019009,0.0173471 -0.0429559,0.023963 -0.015701,0.0132159 -0.007439,0.015701 -0.002485,0.020655 0.00497,0.42053803 -0.0396639,0.005777 -0.0132159,0.004131 -0.0809739,0.0446179 -0.0652729,0.0561879 -0.22967338,0.28090732 -0.0181861,0.0223009 -0.0189929,0.014878 -0.0231399,0.009908 -0.0652729,0.015701 -0.0702268,0.0396478 -0.25528211,0.2032575 -0.1429388,0.18340957 -0.014878,0.0140389 -0.1420996,0.0644499 -0.028917,0.006616 -0.060319,0.0941737 -0.030563,0.0289169 -0.00578,0.006616 0.00495,0.01817 0.023963,0.0396639 0.00578,0.0223009 -0.00331,0.014878 -0.00909,0.009085 -0.013216,0.004954 -0.037179,0.004131 -0.00579,0.0115698 0.00662,0.035533 -0.00413,0.0256089 -0.010747,0.033048 -0.016524,0.028917 -0.047087,0.026432 -0.00744,0.029756 0.00413,0.043779 -0.013216,0.00826 -0.053703,0.025609 0.043795,0.062804 0.016524,0.017347 0.028917,0.023963 0.034694,0.021478 0.032225,0.00909 0.00578,0.00909 0.023963,0.043795 -8.23e-4,0.023124 -0.00248,0.016524 -0.00991,0.038018 0.00165,0.069388 0.037179,0.044618 0.2073725,0.092544 0.26769138,0.096659 0.040487,0.014039 0.2718224,0.1487157 0.0660958,0.045441 0.0570109,0.060319 0.0305629,0.061965 0.010747,0.021478 0.014039,-0.010731 0.0140389,-0.0091 0.017363,-0.00495 0.0247859,0 -0.0396639,0.039664 -0.0165239,0.038825 0.005777,0.042133 0.028094,0.047926 -0.0181699,-0.00495 -0.012393,-0.00662 -0.009085,-0.00991 -0.008262,-0.014055 -0.013232,0.028917 0.033887,0.031402 0.22223441,0.1140218 0.038018,0.00991 0.31064725,0.076843 0.05452588,0.022301 0.0479259,0.028917 0.0264319,0.033048 -0.013216,-0.040487 -0.038841,-0.032225 -0.08921976,-0.046264 0,-0.013216 0.033048,0.00248 0.0280939,0.011554 0.0561719,0.03471 0.0256089,0.020655 0.0223171,0.023124 8.2303e-4,8.394e-4 0.023963,0.018993 0.0338709,0.00744 -0.007439,0.016524 -0.0107309,0.00662 -0.014055,-8.394e-4 -0.015701,-0.00991 -0.004131,0.02314 0.0173631,0.023124 0.0305629,0.017347 0.0652729,0.013232 0.0313858,0.013216 0.0917209,0.058657 0.0710499,0.077666 0.12144441,0.096659 0.0181861,0.00992 0.0264322,0.00578 0.0305629,0.016524 0.0272708,0.022301 0.0157012,0.026448 0.00247,0.021478 -0.007423,0.021478 0.004954,0.018186 0.010731,0.012393 0.0297558,0.017347 0.0132163,0.010731 0.0611415,0.069404 0.2362898,0.1958189 0.1875404,0.1809243 0.062788,0.061142 0.171856,0.1008059 0.028094,0.04131 -0.00413,0.017347 -0.020655,0.025609 0.00247,0.016524 0.010747,-8.242e-4 0.047926,0.00991 0.00495,0.00331 0.025608,0.00578 0.030563,0.015701 0.027271,0.019832 0.01817,0.017347 0.015701,0.031402 0.018187,0.062788 0.012393,0.025609 0.090881,0.085927 0.1098752,0.1040982 0.033871,0.018186 0.038018,0.014039 0.034693,0.019009 0.022301,0.032209 -0.022301,0 0.02314,0.030579 0.028918,0.014862 0.030562,0.01157 0.054526,0.040487 0.059496,0.028094 0.027255,0.01817 0.098321,0.085106 0.060319,0.036355 0.076004,0.020656 -0.00331,0.00578 -8.243e-4,0.00248 -8.242e-4,8.242e-4 -0.00579,0.00413 0.029756,0.022301 0.040471,0.019009 0.042149,0.013216 0.052864,0.00826 0.035533,0.015701 0.01817,0.00331 0.052879,0.024786 0.044618,0.028917 0.1206218,0.1024352 0.053702,0.028917 0.074358,0.027271 0.1652394,0.061142 0.099144,0.055349 0.1916879,0.1371454 0.1776327,0.065273 0.033871,0.00579 0.026432,0.014039 0.074358,0.082619 0.060319,0.020655 0.2098576,0.025609 0.1082285,0.042133 0.058657,0.0091 0.074358,0.020655 0.031402,0.012393 0.016524,0.010731 0.013216,0.01157 0.017347,0.00908 0.028916,0.00413 0.019009,0.00744 0.04131,0.032225 0.032208,0.00991 0.019009,0.00579 0.015701,0.020655 0.00908,0.023124 0.010747,0.019009 0.019816,0.017347 0.020656,0.012393 0.067758,0.027271 0.028094,0.00247 0.00742,0.00579 0.00579,0.012393 0.00744,0.012393 0.014862,0.00495 0.1173297,0 0.021478,0.00413 0.040487,0.017347 0.025609,0.00331 0.090058,-0.00908 -0.05701,-0.039664 -0.00992,-0.020655 0.00248,-0.01817 0.01817,-0.032225 0.00497,-0.016524 -0.00248,-0.016524 -0.01157,-0.035533 0.00331,-0.043779 -0.00331,-0.018186 -0.00495,-0.015701 -0.00248,-0.015685 0.00744,-0.3726284 -0.00744,-0.090043 -0.00413,-0.015701 -0.010731,-0.012393 -0.013216,-0.00992 -0.013232,-0.013216 -0.00908,-0.019832 8.243e-4,-0.00247 0,-0.013216 0.00992,-0.035533 0.00247,-0.019832 -0.012393,-0.053703 8.364e-4,-0.016524 0.05204,-0.042133 0.023141,0.00248 0.014039,0.010731 0.00662,8.243e-4 0,-0.026432 -0.00992,-0.033871 -0.015685,-0.02314 -0.012393,-0.023963 0.00247,-0.037179 -0.013216,-0.1007897 0.00331,-0.02974 0.022301,-0.031402 0.028094,-0.013216 0.028917,0 0.023963,0.00991 0.046264,-0.085089 0.010747,-0.030579 8.242e-4,-0.028917 -0.014055,-0.081781 0.018186,-0.057011 0.00744,-0.016524 0.013216,-0.015701 0.043779,-0.023963 0.00497,-0.00495 0.018993,0.00331 -0.00247,0.0066 -0.0091,0.0091 0.00248,0.00908 0.00495,0.010731 8.243e-4,0.013232 0.00331,0.0066 0.017347,-0.00744 0.00826,-0.010731 0.00662,-0.028094 0.00413,-0.012393 0.020655,-0.028917 0.00991,-0.01817 0.00166,-0.019832 -0.00413,-0.033048 -0.00992,-0.033049 -0.012393,-0.00248 -0.01817,0.00331 -0.025609,-0.014039 -0.016524,-0.023963 -0.01157,-0.029739 -0.00662,-0.030579 -8.242e-4,-0.028094 0.023964,0.013232 0.00826,-0.019009 -0.00165,-0.065273 0.012393,-0.024786 0.020655,-0.016524 0.00909,-0.014861 -0.00248,-0.00166 -0.01817,-0.017347 0.01157,0 0.033872,-0.00164 -0.023141,-0.030579 -0.00826,-0.033047 0.01157,-0.020655 0.036356,0.00579 -0.021478,-0.028095 -0.059495,-0.1197982 -0.031387,-0.136323 0.00164,-0.063627 0.010747,-0.073519 -0.00744,-0.060319 -0.055365,-0.023963 -0.00495,0.051234 -0.00908,0.028917 -0.013216,0.013216 -0.016524,-0.00992 -0.00826,-0.024786 -0.01157,-0.023124 -0.026432,-0.00413 0.00578,-0.02974 -0.013216,0.00578 -0.021478,0.017347 -0.019832,0.00992 -0.012393,-0.00662 -0.022318,-0.028917 -0.013216,-0.010747 0.014055,-0.01817 -0.0091,-0.01157 -0.037179,-0.016524 -0.00495,-8.248e-4 -0.035517,-0.019832 -0.00248,-0.00578 -0.030563,-0.00495 -0.024786,-0.020655 -0.019009,-0.022317 -0.01157,-0.00826 -0.018993,0.022317 -0.019832,0.034694 -0.023963,0.012393 -0.030563,-0.042956 -0.021494,-0.020655 -0.067742,-0.036356 -0.022301,-0.028094 -0.00166,-0.012393 0.00166,-0.049572 0.0033,-0.00826 0.015701,-0.00826 0.00331,-0.00991 -0.00331,-0.010747 -0.00908,-0.00413 -0.00909,-0.00331 -0.00579,-0.00578 -0.00495,-0.039664 -0.00744,-0.016524 -0.016524,-0.014862 -0.015685,-0.00166 -0.021494,0.00579 -0.016524,0.00908 -8.242e-4,0.00826 -0.01817,-0.023963 -0.00495,-0.035533 0.00413,-0.038825 0.00826,-0.037179 0.023124,-0.066919 -0.00495,-0.02314 -0.026432,-0.033048 -0.076843,-0.061965 -0.00578,-0.00826 -0.00413,-0.020655 -0.00331,-0.00578 -0.010747,-0.00331 -0.00744,0.00248 -0.00742,0.00247 -0.00992,-8.23e-4 -0.1107138,-0.026432 -0.028078,-0.019009 -0.029756,-0.00744 -0.046264,0.00166 -0.080134,0.010731 -0.020655,0.00826 -0.038002,0.021478 -0.023962,0.00579 -0.028095,8.23e-4 -0.014039,-0.00495 -0.01157,-0.00909 -0.019009,-0.010747 -0.020655,-0.00744 -0.1330145,-0.030563 -0.015701,-0.00579 -0.00247,-0.00742 0,-0.01157 -0.00248,-0.014878 -0.00826,-0.014039 -0.012393,-0.00662 -0.00744,0.00579 -0.00578,0.00742 -0.00826,8.394e-4 -0.018186,-0.016524 -0.016524,-0.019009 -0.01817,-0.00662 -0.022301,0.019009 -0.018186,-0.00826 -0.020655,-8.23e-4 -0.021478,0.00826 -0.01817,0.01817 -0.020655,-0.020655 0.00578,-0.010731 0.016524,-0.0091 0.00826,-0.015685 -0.00413,-0.013232 -0.014878,-0.032209 -0.0033,-0.016524 0.00826,-0.028094 0.013216,-0.01157 0.00247,-0.00991 -0.023124,-0.025625 -0.053703,-0.028917 -0.019832,-0.026432 -0.010747,-0.00744 -0.00826,0.014878 -0.00826,0.032225 -0.013216,0.032209 -0.021478,0.018186 -0.032225,-0.01157 -0.050395,-0.068581 -0.019832,-0.017347 -0.019832,-0.00578 -0.04131,0.00165 -0.016524,-0.00413 -0.028917,-0.00165 0.042149,-0.053703 0.00826,-0.00413 0.020655,-0.00331 0.00826,-0.00495 0.00329,-0.00744 0.00744,-0.023963 -0.00164,-0.00247 0.00164,-8.394e-4 0.028917,-0.015685 0.00413,0 0.02314,-0.028094 0.1247528,-0.099967 0.1883799,-0.2115196 0.024786,-0.038002 0.021478,-0.050395 0.014038,-0.052057 0.00331,-0.024786 -0.00164,-0.023124 -0.00826,-0.010747 -0.014055,-0.00909 -0.00826,-0.013216 0.021478,-0.047926 0.00166,-0.027255 -0.00248,-0.028917 0.00248,-0.030579 0.00908,-0.014862 0.035533,-0.027271 0.013216,-0.016524 0.00413,-0.042133 -0.029739,-0.16523943 -0.00248,-0.0421329 -0.00413,-0.0165239 -0.010747,-0.018186 -0.025609,-0.0256089 -0.00578,-0.010747 -0.00166,-0.0115539 0.00331,-0.0214941 -8.243e-4,-0.0115539 -0.00662,-0.0140551 -0.020655,-0.0256089 -0.00826,-0.014039 -0.013216,-0.0537028 -0.01157,-0.02314 -0.028916,-0.0421329 -0.011554,-0.020655 -0.0091,-0.0330479 L 3.6185144,0.30464501 3.5829974,0.18236126 3.5524186,0.12121939 3.4797229,0.08487957 3.4276659,0.05183163 3.3723168,0.0105217 3.340092,-0.02914224 3.329345,-0.07622909 l 0.00992,-0.06527284 -0.2057267,-0.010747 -0.013216,0.03471 -0.045441,0.05534878 -0.01157,0.03553297 -0.00413,0.06030278 -0.00248,0.0099241 -0.00991,0.01816988 -0.00331,0.0099079 0.00166,0.01074697 0.00742,0.0033085 0.00744,0.0016461 0.00413,0.0082619 0.00248,0.04048697 -0.00662,0.0346939 -0.017347,0.031402 -0.028917,0.0314019 -0.047926,0.028917 -0.010731,0.008262 -0.00579,0.016524 -0.00247,0.0355168 -0.00662,0.015701 -0.014861,0.0132159 -0.028095,0.008262 -0.016524,0.009924 -0.030579,0.0388249 -0.015685,0.0247859 -0.00826,0.0181699 0.00329,0.0297561 0.013233,0.0313858 0.00742,0.033048 -0.010731,0.0347099 -0.019009,0.0107309 -0.075181,0.028917 -0.022301,0.002485 -0.033048,-0.0520569 -0.021495,-0.014039 -0.00991,0.0413099 -0.01817,-0.008262 -0.00744,0.002469 -0.00579,0.027271 -0.00742,8.2303e-4 -0.038018,0.01157 -0.014039,0.007439 -0.02974,-0.002485 -0.023963,0.0132159 -0.021478,0.019832 -0.023963,0.0173469 -0.02314,0.007439 -0.023947,0.004131 -0.00826,0.003308 -0.014878,0.004131 -0.019832,0.0181699 0.016524,-0.0603027 -0.0066,-0.02314 -0.033887,-0.017347 -0.013216,-0.010747 -8.243e-4,-0.0297399 -0.00991,-0.007439 -0.038018,0.001662 L 2.281714,0.57562895 2.239581,0.53598115 2.215618,0.42691328 2.190832,0.39221938 2.164384,0.38891138 2.105728,0.40461228 2.078473,0.40048128 2.068553,0.38808828 2.056983,0.35339438 2.04459,0.33851628 l -0.014039,-0.009085 -0.012393,-0.004131 -0.024786,-0.003308 -0.028916,8.2303e-4 -0.015701,0.003308 -0.00744,0.005777 -0.00329,0.019009 -0.0091,0.005777 -0.00991,0.003308 -0.025609,0.0371789 -0.019832,-0.0165239 -0.033049,-0.0586569 -0.019832,0.0289169 -0.049572,0.0487489 -0.014039,0.007439 -0.00744,-0.005793 0.019009,-0.016524 0.010731,-0.0173469 0.00495,-0.020655 8.363e-4,-0.023963 0.0066,-0.0214779 0.016524,-0.0165239 0.035533,-0.027271 0.038825,-0.0586568 0.014878,-0.0371789 -0.00662,-0.023963 0.030579,-0.0363398 0.012393,-0.01900897 0.00826,-0.04708685 0.00991,-0.02562509 0.014878,-0.02312381 0.018993,-0.0140551 -0.036356,-0.04213284 -0.00247,-0.05865685 0.016524,-0.0619648 0.018993,-0.0446179 -0.043779,-0.0561718 -0.014878,-0.029756 -0.045441,-0.0578339 -0.039648,-0.0726957 -0.016524,-0.071889 0.00413,-0.0735187 0.022301,-0.075197 -0.00164,0.00497 0.00164,-0.005793 0,8.2303e-4 0.00248,-0.005777 0.012393,-0.015701 0.00413,-0.0173469 -0.00331,-0.0181699 -0.00909,-0.019009 -0.019832,-0.0239629 -0.018186,-0.001646 -0.018993,0.014039 -0.020655,0.0256089 0.00331,-0.0198159 0.01817,-0.0314017 0.00331,-0.0181699 -0.030579,-0.12641478 -8.242e-4,-0.0198319 -0.00495,-0.020655 -0.017347,-0.009085 -0.042133,-0.008262 -0.024786,-0.01817 -0.00331,-0.047103 0.01157,-0.049572 0.016524,-0.027255 0.00826,-0.00744 0.00329,-0.00826 -0.00329,-0.00744 -0.00826,-0.00826 -0.0091,-0.017347 -0.00742,-0.019009 -0.00826,-0.01817 -0.015701,-0.014878 0.01817,-0.019832 0.010747,-0.00826 0.01157,-0.0066 0.00742,-0.00248 0.021494,-0.013216 -0.0091,-0.00495 -0.012393,-0.013216 -0.030563,-0.021494 -0.085928,-0.03634 -0.022301,-0.031402 -0.014055,-0.00991 -0.012393,0.014039 -0.00826,0.01157 -0.012393,0.00578 -0.014862,0.00248 -0.014055,-0.00166 -0.02974,8.388e-4 -0.025609,0.00578 -0.014878,-0.00495 0.00166,-0.031402 0.016524,-0.022301 0.0223,-0.015701 0.014044,-0.020655 -0.0091,-0.037179 -0.022301,-0.02314 -0.034694,-0.015685 -0.033887,0 -0.020655,0.023947 -0.00413,0.035533 -8.249e-4,0.025609 -0.0066,0.00413 -0.023963,-0.025609 -0.017347,-0.030563 -0.00826,-0.031402 -0.010747,-0.080974 -0.00991,-0.02974 -0.018186,-0.023124 -0.02974,-0.00413 z"
         id="path4233" />
    </clipPath>
    <clipPath
       clipPathUnits="userSpaceOnUse"
       id="clipPath4235">
      <path
         inkscape:connector-curvature="0"
         style="display:inline;fill:#fefee4;stroke:none;stroke-opacity:1"
         d="m 47.849263,-4.2961622e-5 0.01361,0.354386001622 -0.122742,0.245221 -0.204484,0.204484 -0.204484,0.25906596 0,0.231909 0.09558,0.218063 -0.02744,0.190905 -0.708771,0.204484 -0.518133,0.2588 -0.245217,0.08201 -0.136328,-0.190904 -0.13632,-0.122744 -0.136321,-0.06816 -0.39539,0.109165 -0.149905,0.01358 -0.545289,0.01358 -0.477132,0.06816 L 43.486951,2.208284 43.009819,2.467351 41.905657,3.326024 40.760494,4.007638 40.147042,4.116802 39.779082,3.980479 39.65634,3.59867 39.942558,2.249287 39.751659,1.840319 39.315528,1.594832 37.706816,1.185864 37.229686,1.172284 36.738978,1.322186 35.784719,2.262866 35.30759,2.535512 35.075947,2.058382 34.503233,2.276445 34.203429,2.331025 33.88978,2.317445 33.8762,3.80315 l -0.872519,3.517232 -0.504287,1.090581 -0.05459,0.640611 0.204484,0.817936 0.218063,0.572715 -0.06816,0.517867 -0.708771,0.681613 -0.545292,0.327228 -0.558869,0.177325 -0.586294,0.08174 -2.290328,0.01358 -0.572449,0.08174 -0.668034,0.327228 -0.408968,0.531711 -0.654189,1.226904 -0.313649,0.286227 -0.708772,0.395389 -0.259066,0.218063 -0.122744,0.259066 -0.041,0.340807 0.08201,6.938878 -0.654455,0.09532 -0.218062,0.06816 -1.336069,0.736196 -1.077003,0.927101 -3.789611,4.634971 -0.30007,0.367965 -0.313383,0.245487 -0.381809,0.163481 -1.077003,0.259067 -1.158743,0.654189 -4.212156,3.353749 -2.358489,3.026258 -0.245487,0.231642 -2.344644,1.063423 -0.47713,0.109165 -0.995263,1.553866 -0.504287,0.477129 -0.09532,0.109164 0.08174,0.299805 0.395388,0.654455 0.09532,0.367965 -0.05459,0.245487 -0.149902,0.149902 -0.218063,0.08174 -0.613452,0.06816 -0.09559,0.190902 0.109165,0.586294 -0.06816,0.422547 L 2.208322,44.536472 1.935677,45.013601 1.158744,45.449728 1.036,45.940702 1.10416,46.663053 0.886098,46.799375 0,47.221923 l 0.722617,1.036265 0.272645,0.286225 0.477129,0.395388 0.572449,0.354386 0.531713,0.149902 0.09532,0.149902 0.395389,0.722616 -0.01358,0.381545 -0.041,0.272645 -0.163481,0.627297 0.02716,1.144898 0.613452,0.736196 3.421647,1.526973 4.416908,1.594869 0.668035,0.231643 4.48507,2.453809 1.090581,0.749774 0.94068,0.995263 0.504288,1.02242 0.177325,0.354386 0.231643,-0.17706 0.231642,-0.150168 0.28649,-0.08174 0.408968,0 -0.654455,0.654455 -0.272645,0.64061 0.09532,0.695193 0.463551,0.790777 -0.299804,-0.08174 -0.204484,-0.109164 -0.149902,-0.163481 -0.136323,-0.231908 -0.218328,0.477129 0.559135,0.518132 3.666868,1.88136 0.627297,0.163481 5.12568,1.267907 0.899677,0.367965 0.790778,0.47713 0.436127,0.545291 -0.218064,-0.668035 -0.640876,-0.531711 -1.472126,-0.763354 0,-0.218063 0.545292,0.041 0.463549,0.190639 0.926836,0.572714 0.422546,0.340807 0.368232,0.381544 0.01358,0.01385 0.395389,0.313383 0.55887,0.122743 -0.122743,0.272646 -0.17706,0.109165 -0.231908,-0.01385 -0.259067,-0.163481 -0.06816,0.381811 0.286491,0.381543 0.504287,0.286225 1.077003,0.218329 0.517866,0.218063 1.513395,0.967838 1.172323,1.281487 2.003833,1.59487 0.300071,0.163744 0.436131,0.09532 0.504288,0.272648 0.449969,0.367967 0.25907,0.436391 0.04075,0.354382 -0.122482,0.35439 0.08174,0.300071 0.177061,0.204484 0.49097,0.286218 0.218069,0.177061 1.008835,1.145163 3.898782,3.231013 3.094417,2.98525 1.035998,1.00884 2.835623,1.6633 0.46355,0.68161 -0.0682,0.28623 -0.3408,0.42255 0.0408,0.27264 0.17732,-0.0136 0.79078,0.16347 0.0817,0.0546 0.42254,0.0953 0.50429,0.25906 0.44997,0.32723 0.2998,0.28623 0.25907,0.51813 0.30008,1.036 0.20448,0.42255 1.49954,1.4178 1.81294,1.71762 0.55887,0.30007 0.6273,0.23164 0.57244,0.31365 0.36797,0.53145 -0.36797,0 0.38181,0.50455 0.47714,0.24522 0.50428,0.19091 0.89968,0.66803 0.98168,0.46355 0.44971,0.2998 1.62229,1.404241 0.99526,0.59986 1.25406,0.34082 -0.0546,0.0953 -0.0136,0.041 -0.0136,0.0136 -0.0956,0.0682 0.49097,0.36796 0.66777,0.31365 0.69546,0.21807 0.87225,0.13632 0.58629,0.25906 0.29981,0.0546 0.87251,0.40897 0.7362,0.47713 1.99026,1.69018 0.88609,0.47713 1.22691,0.44997 2.72645,1.00885 1.63587,0.91325 3.16285,2.2629 2.93094,1.07701 0.55887,0.0956 0.43612,0.23164 1.22691,1.36322 0.99526,0.34081 3.46265,0.42255 1.78577,0.69519 0.96784,0.15017 1.22691,0.3408 0.518128,0.20449 0.27265,0.17706 0.21806,0.1909 0.28623,0.1499 0.47712,0.0682 0.31365,0.12274 0.68162,0.53171 0.53144,0.16348 0.31365,0.0956 0.25907,0.3408 0.1499,0.38155 0.17732,0.31365 0.32696,0.28622 0.34082,0.20449 1.118,0.44997 0.46355,0.0407 0.12247,0.0956 0.0956,0.20449 0.12274,0.20448 0.24523,0.0817 1.93594,0 0.35438,0.0682 0.66804,0.28623 0.42255,0.0546 1.48596,-0.14989 -0.94067,-0.65446 -0.16375,-0.34081 0.041,-0.2998 0.29981,-0.53171 0.082,-0.27265 -0.041,-0.27264 -0.19091,-0.5863 0.0546,-0.72235 -0.0546,-0.30007 -0.0817,-0.25906 -0.041,-0.2588 0.12274,-6.14837 -0.12274,-1.48571 -0.0682,-0.25906 -0.17706,-0.20448 -0.21806,-0.16375 -0.21833,-0.21806 -0.1499,-0.32723 0.0136,-0.0408 0,-0.21806 0.16374,-0.58629 0.0408,-0.32723 -0.20449,-0.8861 0.0138,-0.27265 0.85866,-0.69519 0.38182,0.041 0.23164,0.17706 0.10916,0.0136 0,-0.43612 -0.16374,-0.55887 -0.2588,-0.38181 -0.20449,-0.39539 0.0408,-0.61345 -0.21806,-1.66303 0.0546,-0.49071 0.36796,-0.518131 0.46355,-0.21806 0.47713,0 0.39539,0.16348 0.76335,-1.40397 0.17733,-0.50455 0.0136,-0.47713 -0.23191,-1.34938 0.30007,-0.94068 0.12275,-0.27265 0.21806,-0.25906 0.72235,-0.39539 0.082,-0.0817 0.31338,0.0546 -0.0408,0.1089 -0.15017,0.15017 0.041,0.14989 0.0817,0.17706 0.0136,0.21833 0.0546,0.1089 0.28623,-0.12274 0.13632,-0.17706 0.10916,-0.46355 0.0682,-0.20448 0.3408,-0.47713 0.16349,-0.29981 0.0274,-0.32722 -0.0682,-0.54529 -0.16375,-0.5453 -0.20448,-0.041 -0.2998,0.0546 -0.42255,-0.23165 -0.27265,-0.39539 -0.1909,-0.4907 -0.10917,-0.50456 -0.0136,-0.46355 0.3954,0.21833 0.13632,-0.31365 -0.0272,-1.077 0.20449,-0.40897 0.3408,-0.27265 0.14991,-0.24521 -0.041,-0.0274 -0.29981,-0.28622 0.1909,0 0.55888,-0.0271 -0.38182,-0.50456 -0.13632,-0.54528 0.19091,-0.34081 0.59987,0.0956 -0.35439,-0.46356 -0.98167,-1.97667 -0.51788,-2.24933 0.0271,-1.04984 0.17732,-1.213059 -0.12274,-0.995265 -0.91352,-0.39539 -0.0817,0.845359 -0.1499,0.477132 -0.21806,0.218062 -0.27265,-0.163743 -0.13632,-0.408968 -0.19091,-0.381545 -0.43612,-0.06819 0.0953,-0.49071 -0.21806,0.09532 -0.35439,0.286226 -0.32723,0.163751 -0.20448,-0.109165 -0.36824,-0.477132 -0.21806,-0.177329 0.23191,-0.299803 -0.15017,-0.190906 -0.61345,-0.272641 -0.0817,-0.01361 -0.58603,-0.327227 -0.041,-0.09532 -0.50429,-0.08174 -0.40897,-0.340811 -0.31365,-0.368228 -0.1909,-0.13632 -0.31338,0.368228 -0.32723,0.572451 -0.39539,0.204484 -0.50429,-0.708772 -0.35465,-0.340811 -1.11774,-0.599875 -0.36796,-0.463546 -0.0274,-0.204485 0.0274,-0.817936 0.0544,-0.136323 0.25906,-0.136322 0.0546,-0.163481 -0.0546,-0.177326 -0.14989,-0.06816 -0.14991,-0.05459 -0.0956,-0.09532 -0.0817,-0.654455 -0.12274,-0.272646 -0.27264,-0.245221 -0.2588,-0.02742 -0.35465,0.09558 -0.27265,0.149902 -0.0136,0.136323 -0.2998,-0.395389 -0.0817,-0.586294 0.0682,-0.64061 0.13632,-0.613452 0.38155,-1.104161 -0.0817,-0.38181 -0.43613,-0.545291 -1.26791,-1.02242 -0.0953,-0.136323 -0.0682,-0.340806 -0.0546,-0.09532 -0.17733,-0.05458 -0.12274,0.041 -0.12248,0.04074 -0.16374,-0.01358 -1.826778,-0.436127 -0.46329,-0.313648 -0.49098,-0.122744 -0.76335,0.02742 -1.32222,0.177061 -0.3408,0.136323 -0.62704,0.354386 -0.39538,0.09558 -0.46356,0.01358 -0.23164,-0.08174 -0.1909,-0.149902 -0.31365,-0.177325 -0.34081,-0.122744 -2.19474,-0.504288 -0.25907,-0.09558 -0.0408,-0.122478 0,-0.190905 -0.041,-0.245487 -0.13633,-0.231642 -0.20448,-0.109165 -0.12275,0.09558 -0.0953,0.122478 -0.13632,0.01385 -0.30007,-0.272646 -0.27264,-0.313649 -0.29981,-0.109164 -0.36796,0.313648 -0.30007,-0.136322 -0.34081,-0.01358 -0.35438,0.136322 -0.29981,0.299804 -0.3408,-0.340807 0.0953,-0.17706 0.27264,-0.150167 0.13633,-0.258801 -0.0682,-0.218329 -0.24548,-0.531446 -0.0544,-0.272644 0.13632,-0.463551 0.21806,-0.190905 0.0407,-0.163481 -0.38154,-0.422813 -0.8861,-0.477129 -0.32723,-0.436128 -0.17732,-0.122743 -0.13633,0.245487 -0.13632,0.531711 -0.21806,0.531446 -0.35439,0.30007 -0.53171,-0.190905 -0.83152,-1.131585 -0.32722,-0.286224 -0.32723,-0.09532 -0.68161,0.02716 -0.27265,-0.06816 -0.47713,-0.02716 0.69546,-0.886098 0.13632,-0.06816 0.34081,-0.05459 0.13632,-0.08174 0.0543,-0.122744 0.12275,-0.395389 -0.0271,-0.04073 0.0271,-0.01385 0.47713,-0.2588 0.0682,0 0.38181,-0.46355 2.05842,-1.649452 3.10827,-3.490073 0.40896,-0.627032 0.35439,-0.831515 0.23163,-0.858939 0.0546,-0.408969 -0.0271,-0.381543 -0.13632,-0.177326 -0.23191,-0.149902 -0.13632,-0.218063 0.35438,-0.790778 0.0274,-0.449706 -0.041,-0.477129 0.041,-0.504553 0.1499,-0.245221 0.5863,-0.449972 0.21806,-0.272645 0.0682,-0.695193 -0.4907,-2.726454 -0.041,-0.695193 -0.0682,-0.272645 -0.17733,-0.300069 -0.42255,-0.422547 -0.0953,-0.177326 -0.0274,-0.190639 0.0546,-0.354652 -0.0136,-0.190639 -0.10917,-0.231909 -0.3408,-0.422546 -0.13633,-0.231643 -0.21806,-0.886097 -0.19091,-0.38181 -0.47712,-0.695193 -0.19064,-0.340807 -0.15017,-0.54529 -0.34081,-2.794616 -0.58603,-2.017682 -0.50455,-1.008841 -1.19948,-0.599607 -0.85894,-0.545291 -0.91326,-0.681614 -0.53171,-0.654455 -0.17732,-0.776933 0.16375,-1.077002 -3.39449,-0.177326 -0.21807,0.572715 -0.74977,0.913255 -0.19091,0.586294 -0.0682,0.994996 -0.041,0.163748 -0.16347,0.299803 -0.0546,0.163481 0.0274,0.177325 0.12248,0.05459 0.12274,0.02716 0.0682,0.136322 0.041,0.668035 -0.10917,0.572449 -0.28622,0.518133 -0.47713,0.518132 -0.79078,0.47713 -0.17706,0.136322 -0.0956,0.272646 -0.0408,0.586028 -0.10917,0.259066 -0.24521,0.218063 -0.46356,0.136323 -0.27264,0.163746 -0.50455,0.640611 -0.2588,0.408968 -0.13633,0.299803 0.0543,0.490975 0.21834,0.517866 0.12248,0.545292 -0.17706,0.572714 -0.31365,0.17706 -1.24049,0.47713 -0.36796,0.041 -0.54529,-0.858939 -0.35466,-0.231643 -0.16347,0.681614 -0.29981,-0.136323 -0.12275,0.04074 -0.0956,0.449972 -0.12248,0.01358 -0.6273,0.190905 -0.23164,0.122744 -0.49071,-0.041 -0.39539,0.218063 -0.35438,0.327228 -0.39539,0.286224 -0.38181,0.122744 -0.39512,0.06816 -0.13632,0.05458 -0.24549,0.06816 -0.32723,0.299803 0.27265,-0.994995 -0.1089,-0.38181 -0.55914,-0.286225 -0.21806,-0.177326 -0.0136,-0.490708 -0.16348,-0.122744 -0.6273,0.02742 -0.17706,-0.02742 -0.69519,-0.654189 -0.39539,-1.79962 -0.40897,-0.572449 -0.43639,-0.05458 -0.96783,0.259065 -0.44971,-0.06816 -0.16375,-0.204484 -0.1909,-0.572449 -0.20449,-0.245488 -0.23164,-0.149901 -0.20449,-0.06816 -0.40897,-0.05459 -0.47712,0.01358 -0.25907,0.05459 -0.12274,0.09532 -0.0543,0.313649 -0.15017,0.09532 -0.16348,0.05459 -0.42255,0.613452 -0.32722,-0.272645 -0.5453,-0.967838 -0.32723,0.477129 -0.81793,0.804357 -0.23164,0.122744 -0.12275,-0.09558 0.31365,-0.272646 0.17706,-0.286224 0.0817,-0.340807 0.0138,-0.395389 0.10889,-0.354386 0.27264,-0.272645 0.5863,-0.449972 0.64061,-0.967838 0.24549,-0.613452 -0.10916,-0.395389 0.50455,-0.599607 0.20448,-0.313648 0.13633,-0.776933 0.16348,-0.422814 0.24548,-0.381543 0.31338,-0.231909 -0.59987,-0.695192 -0.0408,-0.967838 0.27265,-1.02242 0.31338,-0.736196 -0.72235,-0.926835 -0.24548,-0.490974 -0.74978,-0.954259 -0.65419,-1.19948 -0.27265,-1.186168 0.0682,-1.213058 0.36797,-1.24075 -0.0271,0.08201 0.0271,-0.09558 0,0.01358 0.041,-0.09532 0.20448,-0.259066 0.0682,-0.286224 -0.0546,-0.299804 -0.14991,-0.313649 -0.32722,-0.395388 -0.30007,-0.02716 -0.31338,0.231643 -0.34081,0.422547 0.0546,-0.326962 0.2998,-0.518128 0.0546,-0.299804 -0.50455,-2.085844 -0.0136,-0.327227 -0.0817,-0.340808 -0.28623,-0.149901 -0.69519,-0.136323 -0.40897,-0.299804 -0.0546,-0.777198 0.19091,-0.817936 0.27265,-0.449706 0.13632,-0.122744 0.0543,-0.136322 -0.0543,-0.122744 -0.13632,-0.136322 -0.15017,-0.286225 -0.12248,-0.313648 -0.13632,-0.299805 -0.25907,-0.245487 0.2998,-0.327227 0.17733,-0.136323 0.19091,-0.108898 0.12247,-0.041 0.35465,-0.218063 -0.15017,-0.08174 -0.20448,-0.218063 -0.50429,-0.354652 -1.41781,-0.599608 -0.36796,-0.518132 -0.23191,-0.163481 -0.20449,0.231642 -0.13632,0.190905 -0.20448,0.09532 -0.24522,0.041 -0.23191,-0.02742 -0.490715,0.01384 -0.422545,0.09532 -0.245485,-0.08174 0.02744,-0.518132 0.272648,-0.367965 0.367959,-0.259066 0.231728,-0.340809 -0.150165,-0.613452 -0.367967,-0.38181 -0.572451,-0.258801 -0.559134,0 -0.340804,0.395124 -0.06819,0.586294 -0.01361,0.422547 -0.108897,0.06816 -0.39539,-0.422548 -0.286226,-0.504287 -0.13632,-0.518133 -0.177328,-1.33606896 -0.163484,-0.490709 -0.300063,-0.381543 -0.49071,-0.0681600016 z"
         id="path4237" />
    </clipPath>
    <clipPath
       clipPathUnits="userSpaceOnUse"
       id="clipPath4239">
      <path
         inkscape:connector-curvature="0"
         style="display:inline;fill:#fefee4;stroke:none;stroke-opacity:1"
         d="m 47.849263,-4.2961622e-5 0.01361,0.354386001622 -0.122742,0.245221 -0.204484,0.204484 -0.204484,0.25906596 0,0.231909 0.09558,0.218063 -0.02744,0.190905 -0.708771,0.204484 -0.518133,0.2588 -0.245217,0.08201 -0.136328,-0.190904 -0.13632,-0.122744 -0.136321,-0.06816 -0.39539,0.109165 -0.149905,0.01358 -0.545289,0.01358 -0.477132,0.06816 L 43.486951,2.208284 43.009819,2.467351 41.905657,3.326024 40.760494,4.007638 40.147042,4.116802 39.779082,3.980479 39.65634,3.59867 39.942558,2.249287 39.751659,1.840319 39.315528,1.594832 37.706816,1.185864 37.229686,1.172284 36.738978,1.322186 35.784719,2.262866 35.30759,2.535512 35.075947,2.058382 34.503233,2.276445 34.203429,2.331025 33.88978,2.317445 33.8762,3.80315 l -0.872519,3.517232 -0.504287,1.090581 -0.05459,0.640611 0.204484,0.817936 0.218063,0.572715 -0.06816,0.517867 -0.708771,0.681613 -0.545292,0.327228 -0.558869,0.177325 -0.586294,0.08174 -2.290328,0.01358 -0.572449,0.08174 -0.668034,0.327228 -0.408968,0.531711 -0.654189,1.226904 -0.313649,0.286227 -0.708772,0.395389 -0.259066,0.218063 -0.122744,0.259066 -0.041,0.340807 0.08201,6.938878 -0.654455,0.09532 -0.218062,0.06816 -1.336069,0.736196 -1.077003,0.927101 -3.789611,4.634971 -0.30007,0.367965 -0.313383,0.245487 -0.381809,0.163481 -1.077003,0.259067 -1.158743,0.654189 -4.212156,3.353749 -2.358489,3.026258 -0.245487,0.231642 -2.344644,1.063423 -0.47713,0.109165 -0.995263,1.553866 -0.504287,0.477129 -0.09532,0.109164 0.08174,0.299805 0.395388,0.654455 0.09532,0.367965 -0.05459,0.245487 -0.149902,0.149902 -0.218063,0.08174 -0.613452,0.06816 -0.09559,0.190902 0.109165,0.586294 -0.06816,0.422547 L 2.208322,44.536472 1.935677,45.013601 1.158744,45.449728 1.036,45.940702 1.10416,46.663053 0.886098,46.799375 0,47.221923 l 0.722617,1.036265 0.272645,0.286225 0.477129,0.395388 0.572449,0.354386 0.531713,0.149902 0.09532,0.149902 0.395389,0.722616 -0.01358,0.381545 -0.041,0.272645 -0.163481,0.627297 0.02716,1.144898 0.613452,0.736196 3.421647,1.526973 4.416908,1.594869 0.668035,0.231643 4.48507,2.453809 1.090581,0.749774 0.94068,0.995263 0.504288,1.02242 0.177325,0.354386 0.231643,-0.17706 0.231642,-0.150168 0.28649,-0.08174 0.408968,0 -0.654455,0.654455 -0.272645,0.64061 0.09532,0.695193 0.463551,0.790777 -0.299804,-0.08174 -0.204484,-0.109164 -0.149902,-0.163481 -0.136323,-0.231908 -0.218328,0.477129 0.559135,0.518132 3.666868,1.88136 0.627297,0.163481 5.12568,1.267907 0.899677,0.367965 0.790778,0.47713 0.436127,0.545291 -0.218064,-0.668035 -0.640876,-0.531711 -1.472126,-0.763354 0,-0.218063 0.545292,0.041 0.463549,0.190639 0.926836,0.572714 0.422546,0.340807 0.368232,0.381544 0.01358,0.01385 0.395389,0.313383 0.55887,0.122743 -0.122743,0.272646 -0.17706,0.109165 -0.231908,-0.01385 -0.259067,-0.163481 -0.06816,0.381811 0.286491,0.381543 0.504287,0.286225 1.077003,0.218329 0.517866,0.218063 1.513395,0.967838 1.172323,1.281487 2.003833,1.59487 0.300071,0.163744 0.436131,0.09532 0.504288,0.272648 0.449969,0.367967 0.25907,0.436391 0.04075,0.354382 -0.122482,0.35439 0.08174,0.300071 0.177061,0.204484 0.49097,0.286218 0.218069,0.177061 1.008835,1.145163 3.898782,3.231013 3.094417,2.98525 1.035998,1.00884 2.835623,1.6633 0.46355,0.68161 -0.0682,0.28623 -0.3408,0.42255 0.0408,0.27264 0.17732,-0.0136 0.79078,0.16347 0.0817,0.0546 0.42254,0.0953 0.50429,0.25906 0.44997,0.32723 0.2998,0.28623 0.25907,0.51813 0.30008,1.036 0.20448,0.42255 1.49954,1.4178 1.81294,1.71762 0.55887,0.30007 0.6273,0.23164 0.57244,0.31365 0.36797,0.53145 -0.36797,0 0.38181,0.50455 0.47714,0.24522 0.50428,0.19091 0.89968,0.66803 0.98168,0.46355 0.44971,0.2998 1.62229,1.404241 0.99526,0.59986 1.25406,0.34082 -0.0546,0.0953 -0.0136,0.041 -0.0136,0.0136 -0.0956,0.0682 0.49097,0.36796 0.66777,0.31365 0.69546,0.21807 0.87225,0.13632 0.58629,0.25906 0.29981,0.0546 0.87251,0.40897 0.7362,0.47713 1.99026,1.69018 0.88609,0.47713 1.22691,0.44997 2.72645,1.00885 1.63587,0.91325 3.16285,2.2629 2.93094,1.07701 0.55887,0.0956 0.43612,0.23164 1.22691,1.36322 0.99526,0.34081 3.46265,0.42255 1.78577,0.69519 0.96784,0.15017 1.22691,0.3408 0.518128,0.20449 0.27265,0.17706 0.21806,0.1909 0.28623,0.1499 0.47712,0.0682 0.31365,0.12274 0.68162,0.53171 0.53144,0.16348 0.31365,0.0956 0.25907,0.3408 0.1499,0.38155 0.17732,0.31365 0.32696,0.28622 0.34082,0.20449 1.118,0.44997 0.46355,0.0407 0.12247,0.0956 0.0956,0.20449 0.12274,0.20448 0.24523,0.0817 1.93594,0 0.35438,0.0682 0.66804,0.28623 0.42255,0.0546 1.48596,-0.14989 -0.94067,-0.65446 -0.16375,-0.34081 0.041,-0.2998 0.29981,-0.53171 0.082,-0.27265 -0.041,-0.27264 -0.19091,-0.5863 0.0546,-0.72235 -0.0546,-0.30007 -0.0817,-0.25906 -0.041,-0.2588 0.12274,-6.14837 -0.12274,-1.48571 -0.0682,-0.25906 -0.17706,-0.20448 -0.21806,-0.16375 -0.21833,-0.21806 -0.1499,-0.32723 0.0136,-0.0408 0,-0.21806 0.16374,-0.58629 0.0408,-0.32723 -0.20449,-0.8861 0.0138,-0.27265 0.85866,-0.69519 0.38182,0.041 0.23164,0.17706 0.10916,0.0136 0,-0.43612 -0.16374,-0.55887 -0.2588,-0.38181 -0.20449,-0.39539 0.0408,-0.61345 -0.21806,-1.66303 0.0546,-0.49071 0.36796,-0.518131 0.46355,-0.21806 0.47713,0 0.39539,0.16348 0.76335,-1.40397 0.17733,-0.50455 0.0136,-0.47713 -0.23191,-1.34938 0.30007,-0.94068 0.12275,-0.27265 0.21806,-0.25906 0.72235,-0.39539 0.082,-0.0817 0.31338,0.0546 -0.0408,0.1089 -0.15017,0.15017 0.041,0.14989 0.0817,0.17706 0.0136,0.21833 0.0546,0.1089 0.28623,-0.12274 0.13632,-0.17706 0.10916,-0.46355 0.0682,-0.20448 0.3408,-0.47713 0.16349,-0.29981 0.0274,-0.32722 -0.0682,-0.54529 -0.16375,-0.5453 -0.20448,-0.041 -0.2998,0.0546 -0.42255,-0.23165 -0.27265,-0.39539 -0.1909,-0.4907 -0.10917,-0.50456 -0.0136,-0.46355 0.3954,0.21833 0.13632,-0.31365 -0.0272,-1.077 0.20449,-0.40897 0.3408,-0.27265 0.14991,-0.24521 -0.041,-0.0274 -0.29981,-0.28622 0.1909,0 0.55888,-0.0271 -0.38182,-0.50456 -0.13632,-0.54528 0.19091,-0.34081 0.59987,0.0956 -0.35439,-0.46356 -0.98167,-1.97667 -0.51788,-2.24933 0.0271,-1.04984 0.17732,-1.213059 -0.12274,-0.995265 -0.91352,-0.39539 -0.0817,0.845359 -0.1499,0.477132 -0.21806,0.218062 -0.27265,-0.163743 -0.13632,-0.408968 -0.19091,-0.381545 -0.43612,-0.06819 0.0953,-0.49071 -0.21806,0.09532 -0.35439,0.286226 -0.32723,0.163751 -0.20448,-0.109165 -0.36824,-0.477132 -0.21806,-0.177329 0.23191,-0.299803 -0.15017,-0.190906 -0.61345,-0.272641 -0.0817,-0.01361 -0.58603,-0.327227 -0.041,-0.09532 -0.50429,-0.08174 -0.40897,-0.340811 -0.31365,-0.368228 -0.1909,-0.13632 -0.31338,0.368228 -0.32723,0.572451 -0.39539,0.204484 -0.50429,-0.708772 -0.35465,-0.340811 -1.11774,-0.599875 -0.36796,-0.463546 -0.0274,-0.204485 0.0274,-0.817936 0.0544,-0.136323 0.25906,-0.136322 0.0546,-0.163481 -0.0546,-0.177326 -0.14989,-0.06816 -0.14991,-0.05459 -0.0956,-0.09532 -0.0817,-0.654455 -0.12274,-0.272646 -0.27264,-0.245221 -0.2588,-0.02742 -0.35465,0.09558 -0.27265,0.149902 -0.0136,0.136323 -0.2998,-0.395389 -0.0817,-0.586294 0.0682,-0.64061 0.13632,-0.613452 0.38155,-1.104161 -0.0817,-0.38181 -0.43613,-0.545291 -1.26791,-1.02242 -0.0953,-0.136323 -0.0682,-0.340806 -0.0546,-0.09532 -0.17733,-0.05458 -0.12274,0.041 -0.12248,0.04074 -0.16374,-0.01358 -1.826778,-0.436127 -0.46329,-0.313648 -0.49098,-0.122744 -0.76335,0.02742 -1.32222,0.177061 -0.3408,0.136323 -0.62704,0.354386 -0.39538,0.09558 -0.46356,0.01358 -0.23164,-0.08174 -0.1909,-0.149902 -0.31365,-0.177325 -0.34081,-0.122744 -2.19474,-0.504288 -0.25907,-0.09558 -0.0408,-0.122478 0,-0.190905 -0.041,-0.245487 -0.13633,-0.231642 -0.20448,-0.109165 -0.12275,0.09558 -0.0953,0.122478 -0.13632,0.01385 -0.30007,-0.272646 -0.27264,-0.313649 -0.29981,-0.109164 -0.36796,0.313648 -0.30007,-0.136322 -0.34081,-0.01358 -0.35438,0.136322 -0.29981,0.299804 -0.3408,-0.340807 0.0953,-0.17706 0.27264,-0.150167 0.13633,-0.258801 -0.0682,-0.218329 -0.24548,-0.531446 -0.0544,-0.272644 0.13632,-0.463551 0.21806,-0.190905 0.0407,-0.163481 -0.38154,-0.422813 -0.8861,-0.477129 -0.32723,-0.436128 -0.17732,-0.122743 -0.13633,0.245487 -0.13632,0.531711 -0.21806,0.531446 -0.35439,0.30007 -0.53171,-0.190905 -0.83152,-1.131585 -0.32722,-0.286224 -0.32723,-0.09532 -0.68161,0.02716 -0.27265,-0.06816 -0.47713,-0.02716 0.69546,-0.886098 0.13632,-0.06816 0.34081,-0.05459 0.13632,-0.08174 0.0543,-0.122744 0.12275,-0.395389 -0.0271,-0.04073 0.0271,-0.01385 0.47713,-0.2588 0.0682,0 0.38181,-0.46355 2.05842,-1.649452 3.10827,-3.490073 0.40896,-0.627032 0.35439,-0.831515 0.23163,-0.858939 0.0546,-0.408969 -0.0271,-0.381543 -0.13632,-0.177326 -0.23191,-0.149902 -0.13632,-0.218063 0.35438,-0.790778 0.0274,-0.449706 -0.041,-0.477129 0.041,-0.504553 0.1499,-0.245221 0.5863,-0.449972 0.21806,-0.272645 0.0682,-0.695193 -0.4907,-2.726454 -0.041,-0.695193 -0.0682,-0.272645 -0.17733,-0.300069 -0.42255,-0.422547 -0.0953,-0.177326 -0.0274,-0.190639 0.0546,-0.354652 -0.0136,-0.190639 -0.10917,-0.231909 -0.3408,-0.422546 -0.13633,-0.231643 -0.21806,-0.886097 -0.19091,-0.38181 -0.47712,-0.695193 -0.19064,-0.340807 -0.15017,-0.54529 -0.34081,-2.794616 -0.58603,-2.017682 -0.50455,-1.008841 -1.19948,-0.599607 -0.85894,-0.545291 -0.91326,-0.681614 -0.53171,-0.654455 -0.17732,-0.776933 0.16375,-1.077002 -3.39449,-0.177326 -0.21807,0.572715 -0.74977,0.913255 -0.19091,0.586294 -0.0682,0.994996 -0.041,0.163748 -0.16347,0.299803 -0.0546,0.163481 0.0274,0.177325 0.12248,0.05459 0.12274,0.02716 0.0682,0.136322 0.041,0.668035 -0.10917,0.572449 -0.28622,0.518133 -0.47713,0.518132 -0.79078,0.47713 -0.17706,0.136322 -0.0956,0.272646 -0.0408,0.586028 -0.10917,0.259066 -0.24521,0.218063 -0.46356,0.136323 -0.27264,0.163746 -0.50455,0.640611 -0.2588,0.408968 -0.13633,0.299803 0.0543,0.490975 0.21834,0.517866 0.12248,0.545292 -0.17706,0.572714 -0.31365,0.17706 -1.24049,0.47713 -0.36796,0.041 -0.54529,-0.858939 -0.35466,-0.231643 -0.16347,0.681614 -0.29981,-0.136323 -0.12275,0.04074 -0.0956,0.449972 -0.12248,0.01358 -0.6273,0.190905 -0.23164,0.122744 -0.49071,-0.041 -0.39539,0.218063 -0.35438,0.327228 -0.39539,0.286224 -0.38181,0.122744 -0.39512,0.06816 -0.13632,0.05458 -0.24549,0.06816 -0.32723,0.299803 0.27265,-0.994995 -0.1089,-0.38181 -0.55914,-0.286225 -0.21806,-0.177326 -0.0136,-0.490708 -0.16348,-0.122744 -0.6273,0.02742 -0.17706,-0.02742 -0.69519,-0.654189 -0.39539,-1.79962 -0.40897,-0.572449 -0.43639,-0.05458 -0.96783,0.259065 -0.44971,-0.06816 -0.16375,-0.204484 -0.1909,-0.572449 -0.20449,-0.245488 -0.23164,-0.149901 -0.20449,-0.06816 -0.40897,-0.05459 -0.47712,0.01358 -0.25907,0.05459 -0.12274,0.09532 -0.0543,0.313649 -0.15017,0.09532 -0.16348,0.05459 -0.42255,0.613452 -0.32722,-0.272645 -0.5453,-0.967838 -0.32723,0.477129 -0.81793,0.804357 -0.23164,0.122744 -0.12275,-0.09558 0.31365,-0.272646 0.17706,-0.286224 0.0817,-0.340807 0.0138,-0.395389 0.10889,-0.354386 0.27264,-0.272645 0.5863,-0.449972 0.64061,-0.967838 0.24549,-0.613452 -0.10916,-0.395389 0.50455,-0.599607 0.20448,-0.313648 0.13633,-0.776933 0.16348,-0.422814 0.24548,-0.381543 0.31338,-0.231909 -0.59987,-0.695192 -0.0408,-0.967838 0.27265,-1.02242 0.31338,-0.736196 -0.72235,-0.926835 -0.24548,-0.490974 -0.74978,-0.954259 -0.65419,-1.19948 -0.27265,-1.186168 0.0682,-1.213058 0.36797,-1.24075 -0.0271,0.08201 0.0271,-0.09558 0,0.01358 0.041,-0.09532 0.20448,-0.259066 0.0682,-0.286224 -0.0546,-0.299804 -0.14991,-0.313649 -0.32722,-0.395388 -0.30007,-0.02716 -0.31338,0.231643 -0.34081,0.422547 0.0546,-0.326962 0.2998,-0.518128 0.0546,-0.299804 -0.50455,-2.085844 -0.0136,-0.327227 -0.0817,-0.340808 -0.28623,-0.149901 -0.69519,-0.136323 -0.40897,-0.299804 -0.0546,-0.777198 0.19091,-0.817936 0.27265,-0.449706 0.13632,-0.122744 0.0543,-0.136322 -0.0543,-0.122744 -0.13632,-0.136322 -0.15017,-0.286225 -0.12248,-0.313648 -0.13632,-0.299805 -0.25907,-0.245487 0.2998,-0.327227 0.17733,-0.136323 0.19091,-0.108898 0.12247,-0.041 0.35465,-0.218063 -0.15017,-0.08174 -0.20448,-0.218063 -0.50429,-0.354652 -1.41781,-0.599608 -0.36796,-0.518132 -0.23191,-0.163481 -0.20449,0.231642 -0.13632,0.190905 -0.20448,0.09532 -0.24522,0.041 -0.23191,-0.02742 -0.490715,0.01384 -0.422545,0.09532 -0.245485,-0.08174 0.02744,-0.518132 0.272648,-0.367965 0.367959,-0.259066 0.231728,-0.340809 -0.150165,-0.613452 -0.367967,-0.38181 -0.572451,-0.258801 -0.559134,0 -0.340804,0.395124 -0.06819,0.586294 -0.01361,0.422547 -0.108897,0.06816 -0.39539,-0.422548 -0.286226,-0.504287 -0.13632,-0.518133 -0.177328,-1.33606896 -0.163484,-0.490709 -0.300063,-0.381543 -0.49071,-0.0681600016 z"
         id="path4241" />
    </clipPath>
    <clipPath
       clipPathUnits="userSpaceOnUse"
       id="clipPath4243">
      <path
         inkscape:connector-curvature="0"
         style="display:inline;fill:#fefee4;stroke:none;stroke-opacity:1"
         d="m 47.849263,-4.2961622e-5 0.01361,0.354386001622 -0.122742,0.245221 -0.204484,0.204484 -0.204484,0.25906596 0,0.231909 0.09558,0.218063 -0.02744,0.190905 -0.708771,0.204484 -0.518133,0.2588 -0.245217,0.08201 -0.136328,-0.190904 -0.13632,-0.122744 -0.136321,-0.06816 -0.39539,0.109165 -0.149905,0.01358 -0.545289,0.01358 -0.477132,0.06816 L 43.486951,2.208284 43.009819,2.467351 41.905657,3.326024 40.760494,4.007638 40.147042,4.116802 39.779082,3.980479 39.65634,3.59867 39.942558,2.249287 39.751659,1.840319 39.315528,1.594832 37.706816,1.185864 37.229686,1.172284 36.738978,1.322186 35.784719,2.262866 35.30759,2.535512 35.075947,2.058382 34.503233,2.276445 34.203429,2.331025 33.88978,2.317445 33.8762,3.80315 l -0.872519,3.517232 -0.504287,1.090581 -0.05459,0.640611 0.204484,0.817936 0.218063,0.572715 -0.06816,0.517867 -0.708771,0.681613 -0.545292,0.327228 -0.558869,0.177325 -0.586294,0.08174 -2.290328,0.01358 -0.572449,0.08174 -0.668034,0.327228 -0.408968,0.531711 -0.654189,1.226904 -0.313649,0.286227 -0.708772,0.395389 -0.259066,0.218063 -0.122744,0.259066 -0.041,0.340807 0.08201,6.938878 -0.654455,0.09532 -0.218062,0.06816 -1.336069,0.736196 -1.077003,0.927101 -3.789611,4.634971 -0.30007,0.367965 -0.313383,0.245487 -0.381809,0.163481 -1.077003,0.259067 -1.158743,0.654189 -4.212156,3.353749 -2.358489,3.026258 -0.245487,0.231642 -2.344644,1.063423 -0.47713,0.109165 -0.995263,1.553866 -0.504287,0.477129 -0.09532,0.109164 0.08174,0.299805 0.395388,0.654455 0.09532,0.367965 -0.05459,0.245487 -0.149902,0.149902 -0.218063,0.08174 -0.613452,0.06816 -0.09559,0.190902 0.109165,0.586294 -0.06816,0.422547 L 2.208322,44.536472 1.935677,45.013601 1.158744,45.449728 1.036,45.940702 1.10416,46.663053 0.886098,46.799375 0,47.221923 l 0.722617,1.036265 0.272645,0.286225 0.477129,0.395388 0.572449,0.354386 0.531713,0.149902 0.09532,0.149902 0.395389,0.722616 -0.01358,0.381545 -0.041,0.272645 -0.163481,0.627297 0.02716,1.144898 0.613452,0.736196 3.421647,1.526973 4.416908,1.594869 0.668035,0.231643 4.48507,2.453809 1.090581,0.749774 0.94068,0.995263 0.504288,1.02242 0.177325,0.354386 0.231643,-0.17706 0.231642,-0.150168 0.28649,-0.08174 0.408968,0 -0.654455,0.654455 -0.272645,0.64061 0.09532,0.695193 0.463551,0.790777 -0.299804,-0.08174 -0.204484,-0.109164 -0.149902,-0.163481 -0.136323,-0.231908 -0.218328,0.477129 0.559135,0.518132 3.666868,1.88136 0.627297,0.163481 5.12568,1.267907 0.899677,0.367965 0.790778,0.47713 0.436127,0.545291 -0.218064,-0.668035 -0.640876,-0.531711 -1.472126,-0.763354 0,-0.218063 0.545292,0.041 0.463549,0.190639 0.926836,0.572714 0.422546,0.340807 0.368232,0.381544 0.01358,0.01385 0.395389,0.313383 0.55887,0.122743 -0.122743,0.272646 -0.17706,0.109165 -0.231908,-0.01385 -0.259067,-0.163481 -0.06816,0.381811 0.286491,0.381543 0.504287,0.286225 1.077003,0.218329 0.517866,0.218063 1.513395,0.967838 1.172323,1.281487 2.003833,1.59487 0.300071,0.163744 0.436131,0.09532 0.504288,0.272648 0.449969,0.367967 0.25907,0.436391 0.04075,0.354382 -0.122482,0.35439 0.08174,0.300071 0.177061,0.204484 0.49097,0.286218 0.218069,0.177061 1.008835,1.145163 3.898782,3.231013 3.094417,2.98525 1.035998,1.00884 2.835623,1.6633 0.46355,0.68161 -0.0682,0.28623 -0.3408,0.42255 0.0408,0.27264 0.17732,-0.0136 0.79078,0.16347 0.0817,0.0546 0.42254,0.0953 0.50429,0.25906 0.44997,0.32723 0.2998,0.28623 0.25907,0.51813 0.30008,1.036 0.20448,0.42255 1.49954,1.4178 1.81294,1.71762 0.55887,0.30007 0.6273,0.23164 0.57244,0.31365 0.36797,0.53145 -0.36797,0 0.38181,0.50455 0.47714,0.24522 0.50428,0.19091 0.89968,0.66803 0.98168,0.46355 0.44971,0.2998 1.62229,1.404241 0.99526,0.59986 1.25406,0.34082 -0.0546,0.0953 -0.0136,0.041 -0.0136,0.0136 -0.0956,0.0682 0.49097,0.36796 0.66777,0.31365 0.69546,0.21807 0.87225,0.13632 0.58629,0.25906 0.29981,0.0546 0.87251,0.40897 0.7362,0.47713 1.99026,1.69018 0.88609,0.47713 1.22691,0.44997 2.72645,1.00885 1.63587,0.91325 3.16285,2.2629 2.93094,1.07701 0.55887,0.0956 0.43612,0.23164 1.22691,1.36322 0.99526,0.34081 3.46265,0.42255 1.78577,0.69519 0.96784,0.15017 1.22691,0.3408 0.518128,0.20449 0.27265,0.17706 0.21806,0.1909 0.28623,0.1499 0.47712,0.0682 0.31365,0.12274 0.68162,0.53171 0.53144,0.16348 0.31365,0.0956 0.25907,0.3408 0.1499,0.38155 0.17732,0.31365 0.32696,0.28622 0.34082,0.20449 1.118,0.44997 0.46355,0.0407 0.12247,0.0956 0.0956,0.20449 0.12274,0.20448 0.24523,0.0817 1.93594,0 0.35438,0.0682 0.66804,0.28623 0.42255,0.0546 1.48596,-0.14989 -0.94067,-0.65446 -0.16375,-0.34081 0.041,-0.2998 0.29981,-0.53171 0.082,-0.27265 -0.041,-0.27264 -0.19091,-0.5863 0.0546,-0.72235 -0.0546,-0.30007 -0.0817,-0.25906 -0.041,-0.2588 0.12274,-6.14837 -0.12274,-1.48571 -0.0682,-0.25906 -0.17706,-0.20448 -0.21806,-0.16375 -0.21833,-0.21806 -0.1499,-0.32723 0.0136,-0.0408 0,-0.21806 0.16374,-0.58629 0.0408,-0.32723 -0.20449,-0.8861 0.0138,-0.27265 0.85866,-0.69519 0.38182,0.041 0.23164,0.17706 0.10916,0.0136 0,-0.43612 -0.16374,-0.55887 -0.2588,-0.38181 -0.20449,-0.39539 0.0408,-0.61345 -0.21806,-1.66303 0.0546,-0.49071 0.36796,-0.518131 0.46355,-0.21806 0.47713,0 0.39539,0.16348 0.76335,-1.40397 0.17733,-0.50455 0.0136,-0.47713 -0.23191,-1.34938 0.30007,-0.94068 0.12275,-0.27265 0.21806,-0.25906 0.72235,-0.39539 0.082,-0.0817 0.31338,0.0546 -0.0408,0.1089 -0.15017,0.15017 0.041,0.14989 0.0817,0.17706 0.0136,0.21833 0.0546,0.1089 0.28623,-0.12274 0.13632,-0.17706 0.10916,-0.46355 0.0682,-0.20448 0.3408,-0.47713 0.16349,-0.29981 0.0274,-0.32722 -0.0682,-0.54529 -0.16375,-0.5453 -0.20448,-0.041 -0.2998,0.0546 -0.42255,-0.23165 -0.27265,-0.39539 -0.1909,-0.4907 -0.10917,-0.50456 -0.0136,-0.46355 0.3954,0.21833 0.13632,-0.31365 -0.0272,-1.077 0.20449,-0.40897 0.3408,-0.27265 0.14991,-0.24521 -0.041,-0.0274 -0.29981,-0.28622 0.1909,0 0.55888,-0.0271 -0.38182,-0.50456 -0.13632,-0.54528 0.19091,-0.34081 0.59987,0.0956 -0.35439,-0.46356 -0.98167,-1.97667 -0.51788,-2.24933 0.0271,-1.04984 0.17732,-1.213059 -0.12274,-0.995265 -0.91352,-0.39539 -0.0817,0.845359 -0.1499,0.477132 -0.21806,0.218062 -0.27265,-0.163743 -0.13632,-0.408968 -0.19091,-0.381545 -0.43612,-0.06819 0.0953,-0.49071 -0.21806,0.09532 -0.35439,0.286226 -0.32723,0.163751 -0.20448,-0.109165 -0.36824,-0.477132 -0.21806,-0.177329 0.23191,-0.299803 -0.15017,-0.190906 -0.61345,-0.272641 -0.0817,-0.01361 -0.58603,-0.327227 -0.041,-0.09532 -0.50429,-0.08174 -0.40897,-0.340811 -0.31365,-0.368228 -0.1909,-0.13632 -0.31338,0.368228 -0.32723,0.572451 -0.39539,0.204484 -0.50429,-0.708772 -0.35465,-0.340811 -1.11774,-0.599875 -0.36796,-0.463546 -0.0274,-0.204485 0.0274,-0.817936 0.0544,-0.136323 0.25906,-0.136322 0.0546,-0.163481 -0.0546,-0.177326 -0.14989,-0.06816 -0.14991,-0.05459 -0.0956,-0.09532 -0.0817,-0.654455 -0.12274,-0.272646 -0.27264,-0.245221 -0.2588,-0.02742 -0.35465,0.09558 -0.27265,0.149902 -0.0136,0.136323 -0.2998,-0.395389 -0.0817,-0.586294 0.0682,-0.64061 0.13632,-0.613452 0.38155,-1.104161 -0.0817,-0.38181 -0.43613,-0.545291 -1.26791,-1.02242 -0.0953,-0.136323 -0.0682,-0.340806 -0.0546,-0.09532 -0.17733,-0.05458 -0.12274,0.041 -0.12248,0.04074 -0.16374,-0.01358 -1.826778,-0.436127 -0.46329,-0.313648 -0.49098,-0.122744 -0.76335,0.02742 -1.32222,0.177061 -0.3408,0.136323 -0.62704,0.354386 -0.39538,0.09558 -0.46356,0.01358 -0.23164,-0.08174 -0.1909,-0.149902 -0.31365,-0.177325 -0.34081,-0.122744 -2.19474,-0.504288 -0.25907,-0.09558 -0.0408,-0.122478 0,-0.190905 -0.041,-0.245487 -0.13633,-0.231642 -0.20448,-0.109165 -0.12275,0.09558 -0.0953,0.122478 -0.13632,0.01385 -0.30007,-0.272646 -0.27264,-0.313649 -0.29981,-0.109164 -0.36796,0.313648 -0.30007,-0.136322 -0.34081,-0.01358 -0.35438,0.136322 -0.29981,0.299804 -0.3408,-0.340807 0.0953,-0.17706 0.27264,-0.150167 0.13633,-0.258801 -0.0682,-0.218329 -0.24548,-0.531446 -0.0544,-0.272644 0.13632,-0.463551 0.21806,-0.190905 0.0407,-0.163481 -0.38154,-0.422813 -0.8861,-0.477129 -0.32723,-0.436128 -0.17732,-0.122743 -0.13633,0.245487 -0.13632,0.531711 -0.21806,0.531446 -0.35439,0.30007 -0.53171,-0.190905 -0.83152,-1.131585 -0.32722,-0.286224 -0.32723,-0.09532 -0.68161,0.02716 -0.27265,-0.06816 -0.47713,-0.02716 0.69546,-0.886098 0.13632,-0.06816 0.34081,-0.05459 0.13632,-0.08174 0.0543,-0.122744 0.12275,-0.395389 -0.0271,-0.04073 0.0271,-0.01385 0.47713,-0.2588 0.0682,0 0.38181,-0.46355 2.05842,-1.649452 3.10827,-3.490073 0.40896,-0.627032 0.35439,-0.831515 0.23163,-0.858939 0.0546,-0.408969 -0.0271,-0.381543 -0.13632,-0.177326 -0.23191,-0.149902 -0.13632,-0.218063 0.35438,-0.790778 0.0274,-0.449706 -0.041,-0.477129 0.041,-0.504553 0.1499,-0.245221 0.5863,-0.449972 0.21806,-0.272645 0.0682,-0.695193 -0.4907,-2.726454 -0.041,-0.695193 -0.0682,-0.272645 -0.17733,-0.300069 -0.42255,-0.422547 -0.0953,-0.177326 -0.0274,-0.190639 0.0546,-0.354652 -0.0136,-0.190639 -0.10917,-0.231909 -0.3408,-0.422546 -0.13633,-0.231643 -0.21806,-0.886097 -0.19091,-0.38181 -0.47712,-0.695193 -0.19064,-0.340807 -0.15017,-0.54529 -0.34081,-2.794616 -0.58603,-2.017682 -0.50455,-1.008841 -1.19948,-0.599607 -0.85894,-0.545291 -0.91326,-0.681614 -0.53171,-0.654455 -0.17732,-0.776933 0.16375,-1.077002 -3.39449,-0.177326 -0.21807,0.572715 -0.74977,0.913255 -0.19091,0.586294 -0.0682,0.994996 -0.041,0.163748 -0.16347,0.299803 -0.0546,0.163481 0.0274,0.177325 0.12248,0.05459 0.12274,0.02716 0.0682,0.136322 0.041,0.668035 -0.10917,0.572449 -0.28622,0.518133 -0.47713,0.518132 -0.79078,0.47713 -0.17706,0.136322 -0.0956,0.272646 -0.0408,0.586028 -0.10917,0.259066 -0.24521,0.218063 -0.46356,0.136323 -0.27264,0.163746 -0.50455,0.640611 -0.2588,0.408968 -0.13633,0.299803 0.0543,0.490975 0.21834,0.517866 0.12248,0.545292 -0.17706,0.572714 -0.31365,0.17706 -1.24049,0.47713 -0.36796,0.041 -0.54529,-0.858939 -0.35466,-0.231643 -0.16347,0.681614 -0.29981,-0.136323 -0.12275,0.04074 -0.0956,0.449972 -0.12248,0.01358 -0.6273,0.190905 -0.23164,0.122744 -0.49071,-0.041 -0.39539,0.218063 -0.35438,0.327228 -0.39539,0.286224 -0.38181,0.122744 -0.39512,0.06816 -0.13632,0.05458 -0.24549,0.06816 -0.32723,0.299803 0.27265,-0.994995 -0.1089,-0.38181 -0.55914,-0.286225 -0.21806,-0.177326 -0.0136,-0.490708 -0.16348,-0.122744 -0.6273,0.02742 -0.17706,-0.02742 -0.69519,-0.654189 -0.39539,-1.79962 -0.40897,-0.572449 -0.43639,-0.05458 -0.96783,0.259065 -0.44971,-0.06816 -0.16375,-0.204484 -0.1909,-0.572449 -0.20449,-0.245488 -0.23164,-0.149901 -0.20449,-0.06816 -0.40897,-0.05459 -0.47712,0.01358 -0.25907,0.05459 -0.12274,0.09532 -0.0543,0.313649 -0.15017,0.09532 -0.16348,0.05459 -0.42255,0.613452 -0.32722,-0.272645 -0.5453,-0.967838 -0.32723,0.477129 -0.81793,0.804357 -0.23164,0.122744 -0.12275,-0.09558 0.31365,-0.272646 0.17706,-0.286224 0.0817,-0.340807 0.0138,-0.395389 0.10889,-0.354386 0.27264,-0.272645 0.5863,-0.449972 0.64061,-0.967838 0.24549,-0.613452 -0.10916,-0.395389 0.50455,-0.599607 0.20448,-0.313648 0.13633,-0.776933 0.16348,-0.422814 0.24548,-0.381543 0.31338,-0.231909 -0.59987,-0.695192 -0.0408,-0.967838 0.27265,-1.02242 0.31338,-0.736196 -0.72235,-0.926835 -0.24548,-0.490974 -0.74978,-0.954259 -0.65419,-1.19948 -0.27265,-1.186168 0.0682,-1.213058 0.36797,-1.24075 -0.0271,0.08201 0.0271,-0.09558 0,0.01358 0.041,-0.09532 0.20448,-0.259066 0.0682,-0.286224 -0.0546,-0.299804 -0.14991,-0.313649 -0.32722,-0.395388 -0.30007,-0.02716 -0.31338,0.231643 -0.34081,0.422547 0.0546,-0.326962 0.2998,-0.518128 0.0546,-0.299804 -0.50455,-2.085844 -0.0136,-0.327227 -0.0817,-0.340808 -0.28623,-0.149901 -0.69519,-0.136323 -0.40897,-0.299804 -0.0546,-0.777198 0.19091,-0.817936 0.27265,-0.449706 0.13632,-0.122744 0.0543,-0.136322 -0.0543,-0.122744 -0.13632,-0.136322 -0.15017,-0.286225 -0.12248,-0.313648 -0.13632,-0.299805 -0.25907,-0.245487 0.2998,-0.327227 0.17733,-0.136323 0.19091,-0.108898 0.12247,-0.041 0.35465,-0.218063 -0.15017,-0.08174 -0.20448,-0.218063 -0.50429,-0.354652 -1.41781,-0.599608 -0.36796,-0.518132 -0.23191,-0.163481 -0.20449,0.231642 -0.13632,0.190905 -0.20448,0.09532 -0.24522,0.041 -0.23191,-0.02742 -0.490715,0.01384 -0.422545,0.09532 -0.245485,-0.08174 0.02744,-0.518132 0.272648,-0.367965 0.367959,-0.259066 0.231728,-0.340809 -0.150165,-0.613452 -0.367967,-0.38181 -0.572451,-0.258801 -0.559134,0 -0.340804,0.395124 -0.06819,0.586294 -0.01361,0.422547 -0.108897,0.06816 -0.39539,-0.422548 -0.286226,-0.504287 -0.13632,-0.518133 -0.177328,-1.33606896 -0.163484,-0.490709 -0.300063,-0.381543 -0.49071,-0.0681600016 z"
         id="path4245" />
    </clipPath>
  </defs>
  <sodipodi:namedview
     pagecolor="#ffffff"
     bordercolor="#666666"
     borderopacity="1"
     objecttolerance="10"
     gridtolerance="10"
     guidetolerance="10"
     inkscape:pageopacity="0"
     inkscape:pageshadow="2"
     inkscape:window-width="1366"
     inkscape:window-height="716"
     id="namedview24"
     showgrid="false"
     fit-margin-top="0"
     fit-margin-left="0"
     fit-margin-right="0"
     fit-margin-bottom="0"
     inkscape:zoom="0.85"
     inkscape:cx="433.63431"
     inkscape:cy="295.58944"
     inkscape:window-x="-8"
     inkscape:window-y="-8"
     inkscape:window-maximized="1"
     inkscape:current-layer="svg2" />
  <path
     inkscape:connector-curvature="0"
     style="fill:#002868;stroke:#002868;stroke-width:0.55000001;stroke-miterlimit:4;stroke-dasharray:none;stroke-opacity:1"
     d="m 48.260318,0.31752027 0.0136,0.35413399 -0.122819,0.24528 -0.204458,0.20445904 -0.204461,0.258887 0,0.232031 0.09561,0.218067 -0.02757,0.190853 -0.708627,0.204459 -0.518132,0.258887 -0.245279,0.082 -0.136426,-0.190853 -0.136068,-0.122819 -0.136426,-0.06839 -0.395312,0.109213 -0.150033,0.01361 -0.545345,0.01361 -0.476953,0.06839 -0.463707,0.136067 -0.476953,0.259244 -1.104297,0.858659 -1.145116,0.681413 -0.613379,0.109212 -0.3681,-0.136071 -0.122819,-0.382064 0.286459,-1.349219 -0.190854,-0.408919 -0.436132,-0.245638 -1.608821,-0.408919 -0.477312,-0.01361 -0.49056,0.150032 -0.954264,0.940658 -0.477311,0.272493 -0.231315,-0.476953 -0.572917,0.218067 -0.299707,0.05443 -0.313671,-0.01361 -0.0136,1.485644 -0.872625,3.517351 -0.504166,1.09069 -0.05479,0.640592 0.204818,0.8178387 0.218066,0.572559 -0.06839,0.518132 -0.708627,0.681413 -0.545345,0.327278 -0.558952,0.177246 -0.586165,0.082 -2.290234,0.01361 -0.57256,0.08164 -0.668163,0.327278 -0.40892,0.531739 -0.654197,1.226757 -0.313673,0.286101 -0.708627,0.39567 -0.259244,0.218067 -0.122819,0.258886 -0.04082,0.340886 0.082,6.938737 -0.654556,0.09525 -0.218068,0.06839 -1.33597,0.736199 -1.077084,0.927051 -3.789484,4.634896 -0.300066,0.368098 -0.313313,0.24528 -0.382064,0.16364 -1.076725,0.258886 -1.158724,0.6542 -4.21237,3.353711 -2.3582678,3.026432 -0.245638,0.231673 -2.344662,1.063476 -0.476953,0.109213 -0.995443,1.553679 -0.504166,0.47731 -0.0956,0.108854 0.082,0.300066 0.395312,0.654199 0.09525,0.368098 -0.05443,0.245639 -0.150032,0.149674 -0.218067,0.082 -0.613379,0.06803 -0.09561,0.190854 0.109213,0.586164 -0.06839,0.422884 -0.177246,0.544985 -0.272494,0.477312 -0.777018,0.436132 -0.122819,0.490919 0.06839,0.722232 -0.21807,0.136423 -0.88622999,0.422526 0.72259099,1.036263 0.272494,0.286101 0.477311,0.39567 0.572558,0.354134 0.531739,0.150032 0.09525,0.150033 0.395312,0.722592 -0.01361,0.381348 -0.04082,0.272851 -0.163639,0.627343 0.02721,1.144759 0.613379,0.736199 3.408138,1.520735 48.1020828,0 0,-47.7948577 -0.0075,-0.0072 0.0075,-0.0082 0,-1.595572 -1.139388,-0.481967 -0.367741,-0.518131 -0.232032,-0.163281 -0.204459,0.231673 -0.136425,0.190853 -0.204461,0.09525 -0.244922,0.04082 -0.232031,-0.02721 -0.490917,0.01396 -0.422526,0.09525 -0.24528,-0.082 0.02721,-0.518132 0.272853,-0.367741 0.367741,-0.259245 0.23203,-0.340527 -0.15039,-0.613737 -0.367741,-0.381706 -0.572559,-0.258886 -0.55931,0 -0.340527,0.395312 -0.06839,0.586166 -0.0136,0.422526 -0.108855,0.06839 -0.395312,-0.422879 -0.286099,-0.504167 -0.136426,-0.518131 -0.177246,-1.33597 -0.16364,-0.49091804 -0.300065,-0.381348 -0.490203,-0.06803 z"
     id="rect8-5" />
  <path
     inkscape:connector-curvature="0"
     style="fill:#bf0a30;stroke:#bf0a30;stroke-width:0.55000001;stroke-miterlimit:4;stroke-dasharray:none;stroke-opacity:1"
     d="m 55.411036,5.9114357 0,1.595573 0.292187,-0.319043 0.177247,-0.136425 0.190852,-0.108855 0.122461,-0.04082 0.354851,-0.218066 -0.15039,-0.082 -0.204461,-0.218066 -0.504167,-0.354493 -0.27858,-0.117806 z m 0,1.61097 0,47.7948573 -48.1020832,0 0.01361,0.0061 4.4168292,1.594857 0.668164,0.231673 4.484863,2.453875 1.090691,0.749804 0.940658,0.995443 0.504167,1.022298 0.177604,0.354493 0.231313,-0.177247 0.231675,-0.150032 0.286458,-0.082 0.409277,0 -0.654557,0.654559 -0.272853,0.640592 0.09561,0.695378 0.463345,0.790625 -0.299706,-0.08164 -0.20446,-0.109212 -0.150033,-0.163639 -0.136066,-0.231673 -0.218425,0.476953 0.558952,0.518131 3.667024,1.881315 0.627345,0.16364 5.125455,1.267937 0.899837,0.367741 0.790625,0.47731 0.436133,0.545345 -0.218068,-0.668164 -0.640592,-0.531738 -1.472396,-0.763411 0,-0.218068 0.545345,0.04118 0.463705,0.190496 0.926694,0.572917 0.422524,0.340884 0.368458,0.381348 0.0136,0.01397 0.395313,0.313315 0.558952,0.122819 -0.12282,0.272493 -0.177245,0.109212 -0.231673,-0.01397 -0.259246,-0.163282 -0.06803,0.381705 0.286458,0.381706 0.504167,0.286101 1.077083,0.218425 0.517774,0.218066 1.513574,0.967871 1.17233,1.281185 2.003777,1.594857 0.300063,0.163997 0.436134,0.09525 0.504167,0.272494 0.450098,0.368099 0.258886,0.436491 0.04082,0.354134 -0.122461,0.354491 0.08164,0.300066 0.177247,0.20446 0.490917,0.286459 0.218066,0.176887 1.008693,1.145118 3.899054,3.23125 3.094109,2.984894 1.036263,1.00905 2.83558,1.66325 0.463345,0.681771 -0.06803,0.286099 -0.340886,0.422526 0.04082,0.272494 0.177247,-0.0136 0.790982,0.163639 0.08164,0.05443 0.422527,0.09561 0.504166,0.258887 0.450098,0.327277 0.299706,0.286101 0.259247,0.518131 0.300063,1.036264 0.204461,0.422525 1.49961,1.417612 1.812922,1.717676 0.558593,0.300063 0.627345,0.231675 0.572557,0.313671 0.368101,0.53138 -0.368101,0 0.381708,0.504524 0.47731,0.245282 0.504166,0.190852 0.899838,0.668164 0.981477,0.463347 0.44974,0.300064 1.622427,1.40401 0.995086,0.60013 1.25433,0.34052 -0.05479,0.0953 -0.0136,0.0412 -0.0136,0.0136 -0.0956,0.068 0.490917,0.3681 0.667806,0.31367 0.695378,0.21807 0.872265,0.13643 0.586524,0.25888 0.299706,0.0548 0.872624,0.40892 0.736199,0.47696 1.990168,1.69046 0.886231,0.47695 1.226757,0.4501 2.726368,1.00869 1.636036,0.91344 3.162858,2.26267 2.930827,1.07708 0.558953,0.0956 0.436131,0.23167 1.226759,1.36318 0.995443,0.34089 3.462563,0.42252 1.785711,0.69502 0.967872,0.15039 1.226751,0.34053 0.51813,0.20482 0.27285,0.17689 0.21807,0.19085 0.2861,0.15003 0.47731,0.068 0.31367,0.12282 0.68141,0.53173 0.53138,0.16364 0.31368,0.0956 0.25924,0.34053 0.14968,0.3817 0.1776,0.31367 0.32692,0.2861 0.34089,0.20446 1.1179,0.4501 0.46335,0.0405 0.12246,0.0956 0.0956,0.20482 0.12282,0.20446 0.24528,0.0816 1.9361,0 0.35414,0.068 0.66816,0.28646 0.42253,0.0544 1.486,-0.15004 -0.94066,-0.6542 -0.16364,-0.34088 0.0408,-0.29971 0.29971,-0.53174 0.082,-0.27285 -0.0408,-0.27249 -0.19086,-0.58617 0.0544,-0.72259 -0.0544,-0.30006 -0.082,-0.25889 -0.0408,-0.25889 0.12282,-6.14847 -0.12282,-1.48564 -0.068,-0.25889 -0.17725,-0.20446 -0.21806,-0.16399 -0.21843,-0.21807 -0.14967,-0.32728 0.0136,-0.0408 0,-0.21807 0.16364,-0.58616 0.0408,-0.32728 -0.20446,-0.88587 0.0136,-0.27285 0.85866,-0.69502 0.38206,0.0408 0.23167,0.17724 0.10886,0.0136 0,-0.43613 -0.16364,-0.55895 -0.25889,-0.38171 -0.20446,-0.39567 0.0408,-0.61338 -0.21807,-1.66289 0.0548,-0.49092 0.36774,-0.51813 0.4637,-0.218065 0.47696,0 0.39567,0.16364 0.76341,-1.404004 0.17725,-0.504526 0.0136,-0.476952 -0.23203,-1.349577 0.30006,-0.940658 0.12282,-0.272494 0.21807,-0.259244 0.72223,-0.395313 0.082,-0.08164 0.31332,0.05443 -0.0408,0.108854 -0.15004,0.150392 0.0412,0.149674 0.0816,0.177246 0.0136,0.218426 0.0544,0.108854 0.28646,-0.122821 0.13607,-0.177245 0.10921,-0.463347 0.0684,-0.204459 0.34053,-0.477312 0.16364,-0.299706 0.0272,-0.327279 -0.068,-0.545345 -0.16364,-0.545346 -0.20446,-0.04082 -0.30006,0.05443 -0.42253,-0.231672 -0.2725,-0.395313 -0.19085,-0.49056 -0.10921,-0.504524 -0.0136,-0.463705 0.39531,0.218424 0.13642,-0.313671 -0.0272,-1.077083 0.20446,-0.40892 0.34089,-0.272493 0.14967,-0.24528 -0.0408,-0.02757 -0.29971,-0.286101 0.19086,0 0.55859,-0.02721 -0.38171,-0.504524 -0.13642,-0.545345 0.19121,-0.340527 0.59977,0.09561 -0.35449,-0.463703 -0.98148,-1.976563 -0.51813,-2.249414 0.0272,-1.049871 0.17725,-1.21315 -0.12282,-0.995085 -0.91344,-0.395313 -0.0816,0.845053 -0.15004,0.47731 -0.21806,0.218068 -0.2725,-0.16364 -0.13642,-0.409277 -0.19086,-0.381348 -0.43613,-0.06839 0.0952,-0.49056 -0.21807,0.09525 -0.35413,0.286459 -0.32728,0.163639 -0.20446,-0.109211 -0.36846,-0.476955 -0.21806,-0.177604 0.23203,-0.299706 -0.15003,-0.190854 -0.61374,-0.272493 -0.0816,-0.0136 -0.58581,-0.327279 -0.0412,-0.09561 -0.50416,-0.08164 -0.40892,-0.340884 -0.31368,-0.368099 -0.19085,-0.136427 -0.31367,0.368458 -0.32692,0.572199 -0.39568,0.204461 -0.50416,-0.708627 -0.35449,-0.340885 -1.11791,-0.599773 -0.3681,-0.463703 -0.0272,-0.204461 0.0272,-0.817837 0.0544,-0.136427 0.25925,-0.136067 0.0544,-0.163639 -0.0544,-0.177247 -0.15004,-0.06803 -0.14967,-0.05479 -0.0956,-0.09525 -0.082,-0.654557 -0.12246,-0.272494 -0.27285,-0.245279 -0.25889,-0.02757 -0.35449,0.0956 -0.2725,0.150032 -0.0136,0.136426 -0.30006,-0.39567 -0.0816,-0.586166 0.0684,-0.640592 0.13607,-0.613379 0.3817,-1.104297 -0.0816,-0.381705 -0.43613,-0.545346 -1.26794,-1.022297 -0.0952,-0.136426 -0.0684,-0.340886 -0.0544,-0.09525 -0.1776,-0.05443 -0.12246,0.04082 -0.12246,0.04082 -0.164,-0.0136 -1.826522,-0.436132 -0.463346,-0.313672 -0.490919,-0.122819 -0.763411,0.02757 -1.322363,0.176887 -0.340886,0.136426 -0.626986,0.354491 -0.395312,0.09561 -0.463346,0.01326 -0.231673,-0.08164 -0.191211,-0.149674 -0.313315,-0.177604 -0.340884,-0.122461 -2.194988,-0.504526 -0.258887,-0.0956 -0.04082,-0.122461 0,-0.190852 -0.04118,-0.245281 -0.136068,-0.231673 -0.204461,-0.109212 -0.122819,0.0956 -0.09525,0.122461 -0.136426,0.0136 -0.300065,-0.272493 -0.272494,-0.313671 -0.300063,-0.109213 -0.367741,0.313672 -0.300066,-0.136426 -0.340886,-0.0136 -0.354491,0.136426 -0.299708,0.299707 -0.340885,-0.340527 0.09525,-0.177246 0.272852,-0.150033 0.136068,-0.258887 -0.06803,-0.218425 -0.245637,-0.531379 -0.05407,-0.272494 0.136068,-0.463705 0.218066,-0.190853 0.04082,-0.163638 -0.381707,-0.422527 -0.885873,-0.477312 -0.327277,-0.436131 -0.177247,-0.122819 -0.136425,0.245637 -0.136426,0.531739 -0.218066,0.53138 -0.354493,0.300066 -0.531381,-0.190854 -0.831804,-1.13151 -0.32692,-0.286458 -0.327278,-0.09525 -0.681771,0.02721 -0.272494,-0.06803 -0.477312,-0.02721 0.695378,-0.88623 0.136426,-0.06803 0.340886,-0.05479 0.136426,-0.08164 0.05407,-0.122819 0.122818,-0.395313 -0.02721,-0.04082 0.02721,-0.0136 0.477312,-0.258885 0.06803,0 0.381706,-0.463705 2.058563,-1.649285 3.108072,-3.490135 0.409277,-0.626987 0.354134,-0.831444 0.231675,-0.859018 0.05478,-0.408919 -0.02721,-0.381706 -0.136426,-0.177246 -0.231674,-0.150033 -0.136426,-0.218066 0.354493,-0.790625 0.02721,-0.449738 -0.04082,-0.476955 0.04082,-0.504524 0.150032,-0.24528 0.586166,-0.450098 0.218066,-0.272494 0.06839,-0.695376 -0.490917,-2.726368 -0.04082,-0.695378 -0.06839,-0.272494 -0.177245,-0.300063 -0.422526,-0.422527 -0.09525,-0.177246 -0.02757,-0.190852 0.05478,-0.354494 -0.0136,-0.190851 -0.109213,-0.231675 -0.340885,-0.422525 -0.136425,-0.231674 -0.218068,-0.88623 -0.190852,-0.381706 -0.476952,-0.695377 -0.190854,-0.340527 -0.150033,-0.545346 -0.340884,-2.794759 -0.585809,-2.017741 -0.504882,-1.00869 -1.199187,-0.599774 -0.859017,-0.544985 -0.913445,-0.681771 -0.531738,-0.654559 -0.177247,-0.777018 0.163999,-1.076726 -3.394532,-0.177602 -0.218066,0.572917 -0.749805,0.913084 -0.190852,0.586524 -0.06839,0.994726 -0.04082,0.163999 -0.16364,0.299706 -0.05443,0.16364 0.02721,0.177246 0.122462,0.05443 0.122818,0.02721 0.06803,0.136426 0.04118,0.668164 -0.109212,0.5722 -0.286101,0.518133 -0.47731,0.518131 -0.790625,0.47731 -0.177246,0.136068 -0.09561,0.272852 -0.04082,0.585806 -0.108854,0.259247 -0.24528,0.218065 -0.463705,0.136426 -0.272494,0.16364 -0.504524,0.640592 -0.258887,0.40892 -0.136426,0.299706 0.05443,0.491276 0.218424,0.517774 0.122461,0.545345 -0.177245,0.572559 -0.313672,0.177245 -1.240366,0.476954 -0.368098,0.04118 -0.545345,-0.859018 -0.354492,-0.231672 -0.16364,0.681411 -0.299707,-0.136066 -0.122819,0.04082 -0.09561,0.44974 -0.122461,0.0136 -0.627345,0.190852 -0.231672,0.122818 -0.49056,-0.04082 -0.395312,0.218066 -0.354492,0.32692 -0.395312,0.286458 -0.381708,0.122819 -0.39531,0.06804 -0.136428,0.05443 -0.24528,0.06839 -0.327277,0.299707 0.272494,-0.995085 -0.108855,-0.381706 -0.558952,-0.286101 -0.218067,-0.177604 -0.0136,-0.490559 -0.163639,-0.122819 -0.627345,0.02757 -0.176887,-0.02757 -0.695378,-0.654199 -0.395313,-1.799674 -0.408918,-0.572201 -0.436491,-0.05479 -0.967872,0.259246 -0.449381,-0.06839 -0.163997,-0.204461 -0.190852,-0.5722 -0.204461,-0.245637 -0.231673,-0.150033 -0.204458,-0.06803 -0.40892,-0.05443 -0.477312,0.01325 -0.258887,0.05479 -0.122818,0.09525 -0.05443,0.313672 -0.150032,0.09525 -0.163282,0.05479 -0.422884,0.613378 -0.32692,-0.272492 -0.545346,-0.967872 -0.327279,0.476953 -0.817839,0.804232 -0.231673,0.122819 -0.122818,-0.0956 0.313672,-0.272494 0.176887,-0.286101 0.082,-0.340884 0.0136,-0.395313 0.108854,-0.354493 0.272852,-0.272851 0.586164,-0.449739 0.640592,-0.967872 0.245639,-0.613378 -0.109213,-0.395672 0.504526,-0.599414 0.204459,-0.31367 0.136425,-0.77702 0.163283,-0.422884 0.245637,-0.381346 0.313315,-0.232032 -0.599773,-0.695019 -0.04082,-0.967871 0.272493,-1.022657 0.313315,-0.736198 -0.722234,-0.926693 -0.245637,-0.490917 -0.749804,-0.954265 -0.653842,-1.199544 -0.272852,-1.186295 0.06839,-1.212794 0.367739,-1.240723 -0.02685,0.082 0.02685,-0.0956 0,0.01361 0.04118,-0.09561 0.20446,-0.258887 0.06803,-0.2861 -0.05443,-0.300065 -0.150032,-0.313671 -0.32728,-0.395313 -0.300065,-0.02721 -0.313313,0.231673 -0.340886,0.422526 0.05479,-0.32692 0.299708,-0.518132 0.05443,-0.299707 -0.504565,-2.085729 -0.0136,-0.327279 -0.08164,-0.340885 -0.2861,-0.150033 -0.695378,-0.136067 -0.40892,-0.299708 -0.05443,-0.777376 0.190852,-0.8178383 0.272494,-0.44974 0.136425,-0.122819 0.05443,-0.136426 -0.05443,-0.122505 -0.136425,-0.136425 -0.150033,-0.286459 -0.122461,-0.313314 -0.136426,-0.300065 -0.251368,-0.238137 z"
     id="rect4-3" />
  <rect
     width="229.90002"
     height="121"
     id="rect4"
     x="0"
     y="0"
     style="fill:#bf0a30"
     clip-path="url(#clipPath4243)"
     transform="translate(0.41103621,0.3171597)" />
  <path
     d="m 53.166666,16.500001 176.733344,0 m -176.733344,22.000003 176.733344,0 M 0,60.500005 l 229.90001,0 M 0,82.500006 l 229.90001,0 M 0,104.50001 l 229.90001,0"
     id="path6"
     inkscape:connector-curvature="0"
     style="stroke:#ffffff;stroke-width:11.00000191"
     clip-path="url(#clipPath4239)"
     sodipodi:nodetypes="cccccccccc"
     transform="translate(0.41103621,0.3171597)" />
  <rect
     width="55"
     height="55"
     id="rect8"
     x="0"
     y="0"
     style="fill:#002868"
     clip-path="url(#clipPath4235)"
     transform="translate(0.41103621,0.3171597)" />
  <g
     transform="matrix(16.500001,0,0,16.500001,27.911037,27.817162)"
     id="g10"
     clip-path="url(#clipPath4231)">
    <g
       id="B">
      <polygon
         id="A"
         points="0,0 0,1 0.5,1 "
         transform="matrix(0.95105652,0.30901699,-0.30901699,0.95105652,0,-1)"
         style="fill:#ffffff" />
      <use
         xlink:href="#A"
         transform="scale(-1,1)"
         id="use14"
         x="0"
         y="0"
         width="100%"
         height="100%" />
    </g>
    <use
       xlink:href="#B"
       transform="matrix(0.30901699,0.95105652,-0.95105652,0.30901699,0,0)"
       id="use16"
       x="0"
       y="0"
       width="100%"
       height="100%" />
    <use
       xlink:href="#B"
       transform="matrix(0.30901699,-0.95105652,0.95105652,0.30901699,0,0)"
       id="use18"
       x="0"
       y="0"
       width="100%"
       height="100%" />
    <use
       xlink:href="#B"
       transform="matrix(-0.80901699,0.58778525,-0.58778525,-0.80901699,0,0)"
       id="use20"
       x="0"
       y="0"
       width="100%"
       height="100%" />
    <use
       xlink:href="#B"
       transform="matrix(-0.80901699,-0.58778525,0.58778525,-0.80901699,0,0)"
       id="use22"
       x="0"
       y="0"
       width="100%"
       height="100%" />
  </g>
</svg>
